<svg width="32" height="32" viewBox="0 0 32 32" fill="none" xmlns="http://www.w3.org/2000/svg">
<path d="M3.00005 16C3.00005 15.31 3.56005 14.75 4.25005 14.75L24.787 14.75L17.355 7.12198C17.2354 7.00553 17.1404 6.86631 17.0754 6.71252C17.0105 6.55873 16.977 6.3935 16.977 6.22657C16.977 6.05963 17.0104 5.89439 17.0752 5.74057C17.1401 5.58676 17.2351 5.4475 17.3547 5.33101C17.4743 5.21451 17.6159 5.12315 17.7714 5.06231C17.9268 5.00146 18.0929 4.97237 18.2598 4.97675C18.4267 4.98113 18.591 5.01889 18.743 5.0878C18.8951 5.15671 19.0318 5.25537 19.145 5.37798L28.642 15.125C28.872 15.3581 29.001 15.6725 29.001 16C29.001 16.3275 28.872 16.6418 28.642 16.875L19.145 26.622C19.0318 26.7446 18.8951 26.8432 18.743 26.9122C18.591 26.9811 18.4267 27.0188 18.2598 27.0232C18.0929 27.0276 17.9268 26.9985 17.7714 26.9376C17.6159 26.8768 17.4743 26.7854 17.3547 26.6689C17.2351 26.5525 17.1401 26.4132 17.0752 26.2594C17.0104 26.1056 16.977 25.9403 16.977 25.7734C16.977 25.6065 17.0105 25.4412 17.0754 25.2874C17.1404 25.1336 17.2354 24.9944 17.355 24.878L24.787 17.25H4.25005C3.56005 17.25 3.00005 16.69 3.00005 16Z" fill="#FAF3ED"/>
</svg>
