<svg width="140" height="98" viewBox="0 0 140 98" fill="none" xmlns="http://www.w3.org/2000/svg">
<g filter="url(#filter0_d_194_120)">
<path fill-rule="evenodd" clip-rule="evenodd" d="M113.668 40.1866C114.543 38.7801 114.113 36.93 112.706 36.0543L89.7855 21.7842C88.379 20.9085 86.5289 21.3388 85.6532 22.7454L79.7107 19.0457C82.6297 14.3573 88.7967 12.9228 93.4852 15.8417L116.406 30.1119C117.501 30.7935 118.418 31.6523 119.144 32.628L119.362 32.9323C120.788 35.0072 121.381 37.5598 121.018 40.0508L120.957 40.42C120.736 41.6159 120.292 42.7914 119.61 43.8863L105.34 66.8071C102.421 71.4956 96.2539 72.93 91.5655 70.0111L95.2651 64.0686C96.6716 64.9443 98.5217 64.514 99.3974 63.1074L113.668 40.1866ZM94.3039 59.9363C93.4282 61.3428 93.8586 63.1929 95.2651 64.0686L91.5655 70.0111C86.877 67.0921 85.4425 60.9251 88.3615 56.2366L89.8719 53.8106L30.5964 67.5982C25.2172 68.8494 19.8421 65.503 18.5909 60.1238C17.3397 54.7445 20.6861 49.3695 26.0653 48.1182L85.3408 34.3306L82.9147 32.8201C78.2263 29.9012 76.7918 23.7341 79.7107 19.0457L85.6532 22.7454C84.7775 24.1519 85.2078 26.002 86.6144 26.8777L103.387 37.3199L27.6512 54.9362C26.0375 55.3116 25.0335 56.9241 25.4089 58.5379C25.7843 60.1517 27.3968 61.1556 29.0106 60.7802L104.746 43.1639L94.3039 59.9363Z" fill="#C4F14F"/>
</g>
<g filter="url(#filter1_d_194_120)">
<path fill-rule="evenodd" clip-rule="evenodd" d="M79.7104 19.0462C79.1582 19.9333 78.7618 20.8734 78.5138 21.8344C77.8391 24.449 78.263 27.2183 79.6355 29.4975C80.4245 30.8079 81.5271 31.9563 82.9146 32.8202L85.3407 34.3306L26.0653 48.1183C20.6861 49.3695 17.3396 54.7446 18.5909 60.1238C19.8421 65.5031 25.2172 68.8495 30.5964 67.5982L89.8718 53.8106L88.3614 56.2367C87.4975 57.6243 87.015 59.1414 86.8852 60.6655C86.6596 63.3164 87.5013 65.9885 89.2606 68.0369C89.9074 68.79 90.6781 69.4587 91.5654 70.0111L88.3943 75.1046C83.6947 72.1787 81.0385 67.2131 80.8583 62.0673L31.9557 73.4422C23.3489 75.4442 14.7488 70.0899 12.7469 61.4831C10.7449 52.8763 16.0992 44.2763 24.706 42.2743L73.6085 30.8994C71.4992 26.2023 71.6913 20.5742 74.6172 15.8746C79.2875 8.37317 89.1547 6.07791 96.6562 10.7483L119.577 25.0184L116.406 30.1119L93.4851 15.8418C89.6839 13.4752 84.9109 13.9703 81.6849 16.7409C80.932 17.3876 80.2633 18.1582 79.711 19.0453C79.7109 19.0454 79.7105 19.046 79.7104 19.0462C79.7103 19.0463 79.7105 19.046 79.7104 19.0462ZM119.61 43.8863L124.703 47.0574C125.788 45.315 126.502 43.4317 126.857 41.5095L126.867 41.4539L126.947 40.9732L126.955 40.9174C127.537 36.9307 126.589 32.8552 124.307 29.5345L124.275 29.488L123.992 29.0917L123.958 29.0464C122.791 27.4782 121.319 26.1032 119.577 25.0184L116.406 30.1119C117.501 30.7935 118.418 31.6523 119.144 32.628L119.362 32.9323C120.787 35.0072 121.381 37.5598 121.018 40.0508L120.957 40.42C120.736 41.6159 120.292 42.7914 119.61 43.8863ZM94.3541 71.208C93.393 70.96 92.4527 70.5635 91.5654 70.0111L88.3943 75.1046C95.8957 79.7749 105.763 77.4798 110.433 69.9783L124.703 47.0574L119.61 43.8863L105.34 66.8071C102.973 70.6083 98.4718 72.2705 94.3541 71.208ZM112.711 36.0575C114.112 36.9335 114.541 38.7776 113.671 40.1818C113.669 40.1834 113.668 40.185 113.667 40.1866L99.3974 63.1075C98.5217 64.514 96.6716 64.9443 95.265 64.0687C93.8585 63.193 93.4282 61.3429 94.3039 59.9363L104.746 43.1639L29.0105 60.7803C27.3967 61.1556 25.7842 60.1517 25.4089 58.5379C25.0335 56.9242 26.0374 55.3116 27.6512 54.9363L103.387 37.3199L86.6143 26.8777C85.2078 26.002 84.7774 24.1519 85.6531 22.7454C86.5288 21.3389 88.3789 20.9085 89.7854 21.7842C89.7858 21.7845 89.7863 21.7847 89.7867 21.785L112.706 36.0543C112.708 36.0554 112.71 36.0565 112.711 36.0575Z" fill="#FAF3ED"/>
</g>
<path fill-rule="evenodd" clip-rule="evenodd" d="M89.7856 21.7843L112.706 36.0544C114.113 36.9301 114.543 38.7802 113.668 40.1867L99.3975 63.1075C98.5218 64.5141 96.6717 64.9444 95.2651 64.0687C93.8586 63.193 93.4283 61.3429 94.3039 59.9364L104.746 43.164L28.0366 61.0069C26.4228 61.3822 24.8103 60.3783 24.435 58.7645C24.0596 57.1508 25.0635 55.5382 26.6773 55.1629L103.387 37.32L86.6144 26.8778C85.2079 26.0021 84.7775 24.152 85.6532 22.7455C86.5289 21.3389 88.379 20.9086 89.7856 21.7843Z" fill="#005E47"/>
<defs>
<filter id="filter0_d_194_120" x="6.32861" y="10.3296" width="126.793" height="81.1936" filterUnits="userSpaceOnUse" color-interpolation-filters="sRGB">
<feFlood flood-opacity="0" result="BackgroundImageFix"/>
<feColorMatrix in="SourceAlpha" type="matrix" values="0 0 0 0 0 0 0 0 0 0 0 0 0 0 0 0 0 0 127 0" result="hardAlpha"/>
<feOffset dy="8"/>
<feGaussianBlur stdDeviation="6"/>
<feComposite in2="hardAlpha" operator="out"/>
<feColorMatrix type="matrix" values="0 0 0 0 0 0 0 0 0 0 0 0 0 0 0 0 0 0 0.25 0"/>
<feBlend mode="normal" in2="BackgroundImageFix" result="effect1_dropShadow_194_120"/>
<feBlend mode="normal" in="SourceGraphic" in2="effect1_dropShadow_194_120" result="shape"/>
</filter>
<filter id="filter1_d_194_120" x="0.327393" y="4.32886" width="138.795" height="93.1952" filterUnits="userSpaceOnUse" color-interpolation-filters="sRGB">
<feFlood flood-opacity="0" result="BackgroundImageFix"/>
<feColorMatrix in="SourceAlpha" type="matrix" values="0 0 0 0 0 0 0 0 0 0 0 0 0 0 0 0 0 0 127 0" result="hardAlpha"/>
<feOffset dy="8"/>
<feGaussianBlur stdDeviation="6"/>
<feComposite in2="hardAlpha" operator="out"/>
<feColorMatrix type="matrix" values="0 0 0 0 0 0 0 0 0 0 0 0 0 0 0 0 0 0 0.25 0"/>
<feBlend mode="normal" in2="BackgroundImageFix" result="effect1_dropShadow_194_120"/>
<feBlend mode="normal" in="SourceGraphic" in2="effect1_dropShadow_194_120" result="shape"/>
</filter>
</defs>
</svg>
