<svg width="131" height="128" viewBox="0 0 131 128" fill="none" xmlns="http://www.w3.org/2000/svg">
<path fill-rule="evenodd" clip-rule="evenodd" d="M65.5002 115.368C75.4463 103.702 81.8887 85.036 81.8887 63.9998C81.8887 42.9636 75.4463 24.2979 65.5002 12.6321C72.266 4.69647 80.6532 0 89.7367 0C112.173 0 130.362 28.6537 130.362 63.9998C130.362 99.346 112.173 128 89.7367 128C80.6532 128 72.266 123.303 65.5002 115.368ZM65.5002 115.368C58.7343 123.303 50.3471 128 41.2637 128C18.8271 128 0.638672 99.346 0.638672 63.9998C0.638672 28.6537 18.8271 0 41.2637 0C50.3471 0 58.7343 4.69647 65.5002 12.6321C55.5541 24.2979 49.1117 42.9636 49.1117 63.9998C49.1117 85.036 55.5541 103.702 65.5002 115.368Z" fill="#FAF3ED"/>
<path d="M65.5 115.368C75.4461 103.702 81.8885 85.0364 81.8885 64.0002C81.8885 42.964 75.4461 24.2982 65.5 12.6325C72.2659 4.6968 80.653 0.000331879 89.7365 0.000331879C112.173 0.000331879 130.362 28.654 130.362 64.0002C130.362 99.3463 112.173 128 89.7365 128C80.653 128 72.2659 123.304 65.5 115.368Z" fill="#005E47"/>
<path fill-rule="evenodd" clip-rule="evenodd" d="M65.5008 115.368C75.4469 103.702 81.8893 85.0365 81.8893 64.0003C81.8893 42.9641 75.4469 24.2983 65.5008 12.6326C55.5547 24.2983 49.1123 42.9641 49.1123 64.0003C49.1123 85.0365 55.5547 103.702 65.5008 115.368Z" fill="#C4F14F"/>
</svg>
