<svg width="712" height="697" viewBox="0 0 712 697" fill="none" xmlns="http://www.w3.org/2000/svg">
<path opacity="0.1" d="M12.1955 480.95C28.6694 497.089 59.9562 496.325 99.7512 481.88C91.6159 512.166 93.6836 536.109 107.819 549.957C125.106 566.893 157.749 566.162 198.798 551.119C191.442 580.94 194.052 604.817 208.492 618.931C228.288 638.324 266.829 635.933 314.081 616.373C308.793 644.401 312.759 667.382 327.403 681.761C370.011 723.504 487.057 676.547 588.816 576.856C690.574 477.164 738.505 362.495 695.896 320.752C681.253 306.406 657.796 302.521 629.153 307.702C649.118 261.376 651.559 223.651 631.763 204.257C617.357 190.144 592.985 187.587 562.546 194.76C577.867 154.545 578.613 122.565 561.359 105.629C547.224 91.7807 522.785 89.755 491.871 97.725C506.616 58.7051 507.395 28.0871 490.922 11.9478C448.313 -29.7951 306.59 41.3372 174.392 170.85C42.1942 300.396 -30.413 439.207 12.1955 480.95ZM441.229 144.316C410.959 195.291 365.503 251.447 311.065 304.779C256.626 358.112 199.34 402.644 147.275 432.299C175.002 380.893 219.984 323.509 275.066 269.545C330.148 215.582 388.722 171.481 441.195 144.35L441.229 144.316ZM512.277 240.255C484.312 287.146 443.262 337.988 394.112 386.107C344.961 434.259 293.099 474.474 245.237 501.871C270.32 454.35 310.793 402.146 360.622 353.297C410.484 304.447 463.77 264.796 512.277 240.255ZM479.668 469.925C440.144 508.646 398.485 541.555 358.724 565.797C379.096 525.582 411.671 482.643 452.144 442.993C492.65 403.309 536.445 371.428 577.494 351.47C552.75 390.39 519.158 431.237 479.634 469.958L479.668 469.925ZM678.304 338.087C690.778 350.308 688.913 380.86 673.456 417.854C654.44 463.283 618.137 513.627 571.223 559.62C524.31 605.581 472.922 641.18 426.517 659.777C388.756 674.92 357.571 676.746 345.097 664.526C334.725 654.364 334.284 631.45 343.368 602.725C391.4 577.719 445.567 537.935 497.328 487.226C549.089 436.517 589.697 383.45 615.222 336.394C644.542 327.527 667.931 327.926 678.304 338.087ZM614.171 221.559C623.221 230.426 625.391 258.42 601.764 308.133C600.476 310.856 599.087 313.579 597.697 316.336C548.139 333.903 489.159 372.192 434.551 425.691C379.943 479.19 340.86 537.005 322.928 585.523C320.115 586.884 317.302 588.246 314.556 589.508C263.812 612.654 235.237 610.529 226.187 601.662C218.662 594.29 215.95 573.668 228.797 538.367C283.811 511.834 349.165 464.744 411.806 403.375C474.448 342.006 522.513 277.98 549.597 224.083C585.63 211.497 606.679 214.154 614.205 221.526L614.171 221.559ZM543.733 122.93C552.783 131.797 552.072 160.323 531.293 204.789C475.871 226.54 407.569 272.8 342.995 336.028C278.456 399.257 231.237 466.205 209.035 520.501C163.647 540.858 134.529 541.555 125.479 532.688C117.717 525.084 117.174 503.066 130.191 468.961C188.764 440.834 260.016 389.295 328.691 322.014C397.366 254.734 449.974 184.93 478.685 127.546C513.497 114.761 535.971 115.325 543.733 122.93ZM473.295 29.2161C481.6 37.3521 480.413 65.1808 460.347 108.385C401.637 132.361 327.843 183.27 257.474 252.244C187.104 321.184 135.14 393.479 110.632 450.996C66.5661 470.655 38.1266 471.817 29.8219 463.681C20.6019 454.649 22.9747 421.507 49.9227 369.967C79.413 313.613 129.886 249.022 192.019 188.151C254.152 127.28 320.081 77.8332 377.604 48.9419C430.178 22.5413 464.041 20.2167 473.261 29.2493L473.295 29.2161Z" fill="#005E47"/>
</svg>
