<svg width="80" height="75" viewBox="0 0 80 75" fill="none" xmlns="http://www.w3.org/2000/svg">
<path d="M24.7138 1.28563C22.8692 3.02228 22.9565 6.32048 24.6076 10.5156C21.1461 9.658 18.4095 9.87597 16.8268 11.3661C14.8911 13.1885 14.9746 16.6296 16.694 20.9569C13.2856 20.1815 10.5567 20.4567 8.94357 21.9789C6.727 24.0658 7.00027 28.1287 9.23582 33.1099C6.03242 32.5525 3.40594 32.9706 1.76249 34.5143C-3.00845 39.006 2.35838 51.3448 13.7525 62.072C25.1465 72.7992 38.2524 77.8519 43.0233 73.3602C44.663 71.8165 45.107 69.3438 44.5149 66.3243C49.8097 68.429 54.1213 68.6862 56.3379 66.5994C57.951 65.0807 58.2432 62.5115 57.4234 59.3026C62.0198 60.9178 65.6748 60.9964 67.6105 59.1776C69.1933 57.6875 69.4248 55.1111 68.5139 51.8522C72.9736 53.4066 76.473 53.4888 78.3176 51.7521C83.0886 47.2604 74.9586 32.3202 60.1562 18.3841C45.3499 4.44805 29.4848 -3.20608 24.7138 1.28563ZM63.1888 46.5136C57.3627 43.3226 50.9445 38.5307 44.8489 32.7919C38.7534 27.0531 33.6636 21.0141 30.2742 15.5254C36.1497 18.4485 42.7083 23.1903 48.876 28.997C55.0436 34.8037 60.0841 40.9785 63.185 46.51L63.1888 46.5136ZM52.2236 54.0033C46.8644 51.0553 41.0535 46.728 35.5538 41.5466C30.0503 36.3652 25.454 30.898 22.3227 25.8524C27.754 28.4967 33.7206 32.7633 39.3037 38.0161C44.8869 43.2725 49.4187 48.8899 52.2236 54.0033ZM25.974 50.5658C21.5484 46.3992 17.7871 42.0076 15.0164 37.816C19.6127 39.9636 24.5203 43.3976 29.0521 47.6642C33.5877 51.9344 37.2314 56.5511 39.5125 60.8785C35.0642 58.2699 30.3957 54.7287 25.9702 50.5622L25.974 50.5658ZM41.0421 71.5056C39.6453 72.8206 36.1535 72.6241 31.9253 70.9946C26.7331 68.99 20.9791 65.1629 15.7223 60.2174C10.4694 55.2719 6.40058 49.8547 4.27511 44.9627C2.54436 40.982 2.33561 37.6945 3.73235 36.3795C4.89377 35.2861 7.51266 35.2396 10.7958 36.1973C13.6538 41.2607 18.2008 46.971 23.9965 52.4275C29.7922 57.884 35.8574 62.1649 41.2356 64.8556C42.249 67.9466 42.2035 70.4122 41.0421 71.5056ZM54.3605 64.7448C53.3471 65.6989 50.1475 65.9276 44.4656 63.437C44.1544 63.3012 43.8431 63.1547 43.5281 63.0082C41.5203 57.7839 37.1441 51.5663 31.0296 45.8096C24.915 40.053 18.3071 35.9329 12.7618 34.0426C12.6062 33.746 12.4506 33.4494 12.3064 33.16C9.66092 27.8106 9.90382 24.7983 10.9172 23.8442C11.7598 23.0509 14.1168 22.7651 18.1514 24.1194C21.184 29.9189 26.5661 36.8083 33.5801 43.4119C40.5942 50.0155 47.9119 55.0825 54.072 57.9376C55.5105 61.7361 55.2069 63.9551 54.3643 64.7484L54.3605 64.7448ZM65.6331 57.3194C64.6197 58.2735 61.3594 58.1985 56.2772 56.008C53.7911 50.1656 48.504 42.9652 41.2774 36.158C34.0508 29.3543 26.399 24.3766 20.1934 22.0361C17.8668 17.2514 17.7871 14.1819 18.8005 13.2278C19.6696 12.4095 22.1861 12.3523 26.084 13.7245C29.2988 19.8992 35.1894 27.4104 42.8791 34.65C50.5688 41.8897 58.5469 47.4355 65.1055 50.4621C66.5668 54.132 66.5022 56.5011 65.6331 57.3194ZM76.344 49.894C75.4141 50.7695 72.2334 50.6444 67.2955 48.529C64.5552 42.3399 58.7367 34.5607 50.8534 27.1424C42.974 19.7241 34.7112 14.2462 28.1374 11.6626C25.8904 7.01729 25.7576 4.01924 26.6875 3.14377C27.7199 2.17182 31.5078 2.42195 37.3984 5.26277C43.8394 8.37159 51.2216 13.6923 58.1787 20.2423C65.1359 26.7922 70.7874 33.7424 74.0894 39.8064C77.1069 45.3487 77.3725 48.9184 76.3402 49.8904L76.344 49.894Z" fill="white"/>
</svg>
