<svg width="86" height="87" viewBox="0 0 86 87" fill="none" xmlns="http://www.w3.org/2000/svg">
<g clip-path="url(#clip0_227_242)">
<mask id="mask0_227_242" style="mask-type:luminance" maskUnits="userSpaceOnUse" x="0" y="0" width="86" height="87">
<path d="M43.1115 86.0551C66.7984 86.0551 86.0004 66.8531 86.0004 43.1662C86.0004 19.4794 66.7984 0.277344 43.1115 0.277344C19.4247 0.277344 0.222656 19.4794 0.222656 43.1662C0.222656 66.8531 19.4247 86.0551 43.1115 86.0551Z" fill="white"/>
</mask>
<g mask="url(#mask0_227_242)">
<path d="M0.222656 0.277344H86.0004V86.0551H0.222656V0.277344Z" fill="#6DA544"/>
<path d="M43.1113 17.0645L78.5449 43.1664L43.1113 69.2683L7.67773 43.1664L43.1113 17.0645Z" fill="#FFDA44"/>
<path d="M29.408 37.3031C28.5744 39.2203 28.163 41.2944 28.2017 43.3846L55.3423 51.7278C56.5381 50.0199 57.3601 48.0789 57.7548 46.0317C50.9529 35.0916 37.7009 32.5786 29.4247 37.3199L29.408 37.3031Z" fill="#EEEEEE"/>
<path d="M43.0615 28.2559C40.6112 28.2621 38.2002 28.872 36.0418 30.0318C33.0711 31.6346 30.7321 34.198 29.4074 37.3028C34.4835 36.2249 39.7508 36.4626 44.7092 37.9932C49.6675 39.5238 54.1523 42.2966 57.7375 46.0481C58.4036 42.6564 57.8706 39.1387 56.2297 36.0965C54.95 33.7202 53.0492 31.7357 50.7301 30.3549C48.411 28.9741 45.7606 28.2486 43.0615 28.2559ZM35.7402 42.2451C33.1837 42.2365 30.641 42.6207 28.2012 43.3843C28.2294 45.7764 28.8327 48.1266 29.9603 50.2365C30.8881 51.9619 32.1469 53.4876 33.6647 54.7263C35.1825 55.9651 36.9295 56.8925 38.8059 57.4558C40.6823 58.019 42.6512 58.2069 44.6003 58.0088C46.5494 57.8107 48.4403 57.2305 50.165 56.3012C52.2126 55.1986 53.974 53.6323 55.3083 51.7275C52.9568 48.7916 49.9801 46.417 46.5951 44.7766C43.21 43.1362 39.5017 42.2714 35.7402 42.2451Z" fill="#0052B4"/>
</g>
</g>
<defs>
<clipPath id="clip0_227_242">
<rect width="85.7778" height="85.7778" fill="white" transform="translate(0.222656 0.277344)"/>
</clipPath>
</defs>
</svg>
