<svg width="86" height="87" viewBox="0 0 86 87" fill="none" xmlns="http://www.w3.org/2000/svg">
<g clip-path="url(#clip0_227_251)">
<mask id="mask0_227_251" style="mask-type:luminance" maskUnits="userSpaceOnUse" x="0" y="0" width="86" height="87">
<path d="M42.8889 86.225C66.5758 86.225 85.7778 67.023 85.7778 43.3362C85.7778 19.6493 66.5758 0.447266 42.8889 0.447266C19.202 0.447266 0 19.6493 0 43.3362C0 67.023 19.202 86.225 42.8889 86.225Z" fill="white"/>
</mask>
<g mask="url(#mask0_227_251)">
<path d="M0 86.225H27.9783L34.3279 42.6158L27.9783 0.447266H0V86.225Z" fill="#6DA544"/>
<path d="M85.778 0.447266H27.9785V86.225H85.778V0.447266Z" fill="#D80027"/>
<path d="M27.9789 58.247C36.2138 58.247 42.8895 51.5713 42.8895 43.3364C42.8895 35.1015 36.2138 28.4258 27.9789 28.4258C19.7441 28.4258 13.0684 35.1015 13.0684 43.3364C13.0684 51.5713 19.7441 58.247 27.9789 58.247Z" fill="#FFDA44"/>
<path d="M19.584 35.88V45.1782C19.584 47.4021 20.4674 49.5349 22.0399 51.1074C23.6124 52.6799 25.7452 53.5633 27.9691 53.5633C30.193 53.5633 32.3258 52.6799 33.8983 51.1074C35.4708 49.5349 36.3542 47.4021 36.3542 45.1782V35.8633H19.6007L19.584 35.88Z" fill="#D80027"/>
<path d="M27.9775 47.9945C26.4362 47.9945 25.1797 46.738 25.1797 45.1967V41.4941H30.7753V45.1799C30.7753 46.7212 29.5188 47.9777 27.9775 47.9777V47.9945Z" fill="#EEEEEE"/>
</g>
</g>
<defs>
<clipPath id="clip0_227_251">
<rect width="85.7778" height="85.7778" fill="white" transform="translate(0 0.447266)"/>
</clipPath>
</defs>
</svg>
