<svg width="114" height="114" viewBox="0 0 114 114" fill="none" xmlns="http://www.w3.org/2000/svg">
<mask id="path-1-outside-1_623_111" maskUnits="userSpaceOnUse" x="15.75" y="1.5" width="83" height="112" fill="black">
<rect fill="white" x="15.75" y="1.5" width="83" height="112"/>
<path d="M68.8747 19H68.8984ZM68.8747 19L56.9997 47.5L80.7497 61.2655L45.1247 95L56.9997 66.5L33.2497 52.725L68.8747 19ZM68.8747 9.5C66.4385 9.51099 64.0974 10.4464 62.3244 12.1173L26.7137 45.8185C25.6402 46.8354 24.8192 48.0891 24.3161 49.4795C23.8131 50.8699 23.6419 52.3587 23.8162 53.827C24.1582 56.8005 25.8919 59.4415 28.4807 60.9425L45.0202 70.5423L36.3467 91.352C35.748 92.7963 35.5144 94.366 35.6667 95.922C35.819 97.4781 36.3524 98.9726 37.2198 100.273C38.0872 101.574 39.2618 102.641 40.6397 103.38C42.0176 104.119 43.5564 104.507 45.1199 104.51C47.4854 104.51 49.8367 103.626 51.6512 101.907L87.2762 68.1673C88.3498 67.1515 89.171 65.8988 89.6741 64.509C90.1773 63.1193 90.3483 61.6311 90.1737 60.1635C90.0031 58.6964 89.4927 57.2893 88.683 56.0541C87.8732 54.8188 86.7865 53.7895 85.5092 53.048L68.9697 43.4625L77.4674 23.0708C78.1545 21.622 78.4637 20.023 78.3662 18.4226C78.2688 16.8222 77.7678 15.2725 76.9101 13.9179C76.0524 12.5632 74.8657 11.4477 73.4607 10.6752C72.0557 9.90277 70.478 9.49847 68.8747 9.5Z"/>
</mask>
<path d="M68.8747 19H68.8984ZM68.8747 19L56.9997 47.5L80.7497 61.2655L45.1247 95L56.9997 66.5L33.2497 52.725L68.8747 19ZM68.8747 9.5C66.4385 9.51099 64.0974 10.4464 62.3244 12.1173L26.7137 45.8185C25.6402 46.8354 24.8192 48.0891 24.3161 49.4795C23.8131 50.8699 23.6419 52.3587 23.8162 53.827C24.1582 56.8005 25.8919 59.4415 28.4807 60.9425L45.0202 70.5423L36.3467 91.352C35.748 92.7963 35.5144 94.366 35.6667 95.922C35.819 97.4781 36.3524 98.9726 37.2198 100.273C38.0872 101.574 39.2618 102.641 40.6397 103.38C42.0176 104.119 43.5564 104.507 45.1199 104.51C47.4854 104.51 49.8367 103.626 51.6512 101.907L87.2762 68.1673C88.3498 67.1515 89.171 65.8988 89.6741 64.509C90.1773 63.1193 90.3483 61.6311 90.1737 60.1635C90.0031 58.6964 89.4927 57.2893 88.683 56.0541C87.8732 54.8188 86.7865 53.7895 85.5092 53.048L68.9697 43.4625L77.4674 23.0708C78.1545 21.622 78.4637 20.023 78.3662 18.4226C78.2688 16.8222 77.7678 15.2725 76.9101 13.9179C76.0524 12.5632 74.8657 11.4477 73.4607 10.6752C72.0557 9.90277 70.478 9.49847 68.8747 9.5Z" fill="#005E47"/>
<path d="M68.8747 19V11H65.6886L63.3749 13.1903L68.8747 19ZM56.9997 47.5L49.615 44.4231L46.9155 50.9019L52.988 54.4215L56.9997 47.5ZM80.7497 61.2655L86.2503 67.0744L94.0243 59.7129L84.7613 54.3441L80.7497 61.2655ZM45.1247 95L37.74 91.9231L50.6253 100.809L45.1247 95ZM56.9997 66.5L64.3843 69.5769L67.083 63.1001L61.0134 59.5798L56.9997 66.5ZM33.2497 52.725L27.7499 46.9154L19.9761 54.2745L29.2359 59.6453L33.2497 52.725ZM68.8747 9.5L68.867 1.50001L68.8528 1.50002L68.8386 1.50009L68.8747 9.5ZM62.3244 12.1173L56.8377 6.2952L56.8316 6.30098L56.8255 6.30676L62.3244 12.1173ZM26.7137 45.8185L21.2147 40.008L21.2119 40.0107L26.7137 45.8185ZM23.8162 53.827L31.7638 52.9129L31.7621 52.8985L31.7604 52.884L23.8162 53.827ZM28.4807 60.9425L32.4965 54.0235L32.4935 54.0217L28.4807 60.9425ZM45.0202 70.5423L52.4044 73.62L55.1033 67.1448L49.036 63.6232L45.0202 70.5423ZM36.3467 91.352L28.9624 88.2742L28.9594 88.2814L28.9564 88.2886L36.3467 91.352ZM45.1199 104.51L45.1066 112.51H45.1199L45.1199 104.51ZM51.6512 101.907L46.1501 96.098L46.1484 96.0997L51.6512 101.907ZM87.2762 68.1673L81.7783 62.3557L81.7751 62.3588L87.2762 68.1673ZM90.1737 60.1635L82.2272 61.0871L82.2284 61.098L82.2297 61.1089L90.1737 60.1635ZM85.5092 53.048L89.5257 46.1294L89.5206 46.1264L85.5092 53.048ZM68.9697 43.4625L61.5852 40.3852L58.8852 46.8644L64.9582 50.3841L68.9697 43.4625ZM77.4674 23.0708L70.2391 19.6428L70.1568 19.8162L70.0829 19.9935L77.4674 23.0708ZM68.8747 27H68.8984V11H68.8747V27ZM61.49 15.9231L49.615 44.4231L64.3843 50.5769L76.2593 22.0769L61.49 15.9231ZM52.988 54.4215L76.738 68.187L84.7613 54.3441L61.0113 40.5786L52.988 54.4215ZM75.249 55.4566L39.624 89.1911L50.6253 100.809L86.2503 67.0744L75.249 55.4566ZM52.5093 98.0769L64.3843 69.5769L49.615 63.4231L37.74 91.9231L52.5093 98.0769ZM61.0134 59.5798L37.2634 45.8048L29.2359 59.6453L52.9859 73.4203L61.0134 59.5798ZM38.7495 58.5347L74.3745 24.8097L63.3749 13.1903L27.7499 46.9154L38.7495 58.5347ZM68.8386 1.50009C64.3752 1.52022 60.086 3.23406 56.8377 6.2952L67.8111 17.9393C68.1087 17.6588 68.5018 17.5018 68.9108 17.4999L68.8386 1.50009ZM56.8255 6.30676L21.2147 40.008L32.2126 51.629L67.8233 17.9277L56.8255 6.30676ZM21.2119 40.0107C19.2336 41.8848 17.7205 44.1952 16.7934 46.7577L31.8389 52.2012C31.9179 51.9829 32.0469 51.786 32.2155 51.6263L21.2119 40.0107ZM16.7934 46.7577C15.8663 49.3202 15.5507 52.0639 15.8719 54.77L31.7604 52.884C31.733 52.6534 31.7599 52.4196 31.8389 52.2012L16.7934 46.7577ZM15.8686 54.7411C16.5001 60.2321 19.6973 65.0973 24.4679 67.8633L32.4935 54.0217C32.0865 53.7857 31.8162 53.3689 31.7638 52.9129L15.8686 54.7411ZM24.4648 67.8615L41.0043 77.4613L49.036 63.6232L32.4965 54.0235L24.4648 67.8615ZM37.6359 67.4645L28.9624 88.2742L43.7309 94.4298L52.4044 73.62L37.6359 67.4645ZM28.9564 88.2886C27.8543 90.9474 27.4244 93.8368 27.7048 96.7013L43.6287 95.1428C43.6044 94.8951 43.6416 94.6453 43.7369 94.4154L28.9564 88.2886ZM27.7048 96.7013C27.9851 99.5658 28.9671 102.317 30.5638 104.712L43.8759 95.8353C43.7378 95.6283 43.6529 95.3904 43.6287 95.1428L27.7048 96.7013ZM30.5638 104.712C32.1605 107.106 34.3228 109.071 36.8593 110.431L44.4202 96.3298C44.2008 96.2122 44.0139 96.0424 43.8759 95.8353L30.5638 104.712ZM36.8593 110.431C39.3958 111.791 42.2284 112.505 45.1066 112.509L45.1332 96.5095C44.8844 96.5091 44.6395 96.4474 44.4202 96.3298L36.8593 110.431ZM45.1199 112.51C49.4723 112.51 53.8101 110.882 57.154 107.713L46.1484 96.0997C45.8632 96.3699 45.4985 96.5095 45.1199 96.5095L45.1199 112.51ZM57.1522 107.715L92.7772 73.9758L81.7751 62.3588L46.1501 96.098L57.1522 107.715ZM92.774 73.9788C94.7541 72.1056 96.2686 69.7952 97.1964 67.2322L82.1519 61.7858C82.0735 62.0023 81.9456 62.1975 81.7783 62.3557L92.774 73.9788ZM97.1964 67.2322C98.1242 64.6692 98.4397 61.9248 98.1176 59.2181L82.2297 61.1089C82.2569 61.3375 82.2303 61.5693 82.1519 61.7858L97.1964 67.2322ZM98.1202 59.2399C97.806 56.5367 96.8655 53.9441 95.3735 51.6681L81.9924 60.44C82.1199 60.6345 82.2003 60.8561 82.2272 61.0871L98.1202 59.2399ZM95.3735 51.6681C93.8816 49.3922 91.8792 47.4957 89.5257 46.1294L81.4926 59.9666C81.6938 60.0834 81.8649 60.2455 81.9924 60.44L95.3735 51.6681ZM89.5206 46.1264L72.9811 36.5409L64.9582 50.3841L81.4977 59.9696L89.5206 46.1264ZM76.3541 46.5398L84.8519 26.148L70.0829 19.9935L61.5852 40.3852L76.3541 46.5398ZM84.6957 26.4988C85.9613 23.8301 86.5309 20.8845 86.3514 17.9364L70.381 18.9088C70.3964 19.1615 70.3476 19.414 70.2391 19.6428L84.6957 26.4988ZM86.3514 17.9364C86.1719 14.9883 85.2492 12.1336 83.6691 9.63819L70.1511 18.1976C70.2865 18.4115 70.3656 18.6561 70.381 18.9088L86.3514 17.9364ZM83.6691 9.63819C82.0891 7.14278 79.9031 5.08789 77.315 3.66492L69.6064 17.6856C69.8283 17.8075 70.0157 17.9837 70.1511 18.1976L83.6691 9.63819ZM77.315 3.66492C74.7268 2.24194 71.8206 1.49718 68.867 1.50001L68.8823 17.5C69.1355 17.4998 69.3846 17.5636 69.6064 17.6856L77.315 3.66492Z" fill="#FAF3ED" mask="url(#path-1-outside-1_623_111)"/>
<path d="M68.8747 19H68.8984ZM68.8747 19L56.9997 47.5L80.7497 61.2655L45.1247 95L56.9997 66.5L33.2497 52.725L68.8747 19ZM68.8747 9.5C66.4385 9.51099 64.0974 10.4464 62.3244 12.1173L26.7137 45.8185C25.6402 46.8354 24.8192 48.0891 24.3161 49.4795C23.8131 50.8699 23.6419 52.3587 23.8162 53.827C24.1582 56.8005 25.8919 59.4415 28.4807 60.9425L45.0202 70.5423L36.3467 91.352C35.748 92.7963 35.5144 94.366 35.6667 95.922C35.819 97.4781 36.3524 98.9726 37.2198 100.273C38.0872 101.574 39.2618 102.641 40.6397 103.38C42.0176 104.119 43.5564 104.507 45.1199 104.51C47.4854 104.51 49.8367 103.626 51.6512 101.907L87.2762 68.1673C88.3498 67.1515 89.171 65.8988 89.6741 64.509C90.1773 63.1193 90.3483 61.6311 90.1737 60.1635C90.0031 58.6964 89.4927 57.2893 88.683 56.0541C87.8732 54.8188 86.7865 53.7895 85.5092 53.048L68.9697 43.4625L77.4674 23.0708C78.1545 21.622 78.4637 20.023 78.3662 18.4226C78.2688 16.8222 77.7678 15.2725 76.9101 13.9179C76.0524 12.5632 74.8657 11.4477 73.4607 10.6752C72.0557 9.90277 70.478 9.49847 68.8747 9.5Z" fill="#005E47"/>
<path d="M68.875 19H68.8987ZM68.875 19L57 47.5L80.75 61.2655L45.125 95L57 66.5L33.25 52.725L68.875 19Z" fill="#C4F14F"/>
<path d="M68.875 19L57 47.5L80.75 61.2655L45.125 95L57 66.5L33.25 52.725L68.875 19Z" fill="#C4F14F"/>
</svg>
