<svg width="24" height="24" viewBox="0 0 24 24" fill="none" xmlns="http://www.w3.org/2000/svg">
<path d="M12.9255 3C13.938 3.0027 14.4519 3.0081 14.8955 3.0207L15.0701 3.027C15.2717 3.0342 15.4706 3.0432 15.7109 3.054C16.6685 3.099 17.3219 3.25019 17.8952 3.47249C18.4892 3.70108 18.9895 4.01068 19.4899 4.51016C19.9476 4.96006 20.3017 5.50427 20.5276 6.10493C20.7499 6.67821 20.9011 7.3316 20.9461 8.29008C20.9569 8.52947 20.9659 8.72837 20.9731 8.93086L20.9785 9.10546C20.992 9.54825 20.9974 10.0621 20.9992 11.0746L21.0001 11.746V12.925C21.0023 13.5814 20.9954 14.2379 20.9794 14.8941L20.974 15.0687C20.9668 15.2712 20.9578 15.4701 20.947 15.7095C20.902 16.668 20.749 17.3205 20.5276 17.8947C20.3023 18.4956 19.9481 19.04 19.4899 19.4894C19.0399 19.9469 18.4957 20.301 17.8952 20.5271C17.3219 20.7494 16.6685 20.9006 15.7109 20.9456C15.4974 20.9556 15.2838 20.9646 15.0701 20.9726L14.8955 20.978C14.4519 20.9906 13.938 20.9969 12.9255 20.9987L12.2541 20.9996H11.076C10.4193 21.0018 9.76253 20.9949 9.10598 20.9789L8.93138 20.9735C8.71773 20.9654 8.50414 20.9561 8.29059 20.9456C7.33302 20.9006 6.67963 20.7494 6.10545 20.5271C5.50486 20.3015 4.96087 19.9474 4.51158 19.4894C4.05354 19.0397 3.6991 18.4954 3.47301 17.8947C3.25071 17.3214 3.09952 16.668 3.05452 15.7095C3.04449 15.496 3.03549 15.2824 3.02752 15.0687L3.02302 14.8941C3.00643 14.2379 2.99893 13.5814 3.00052 12.925V11.0746C2.99801 10.4182 3.00461 9.76172 3.02032 9.10546L3.02662 8.93086C3.03382 8.72837 3.04282 8.52947 3.05362 8.29008C3.09862 7.3316 3.24981 6.67911 3.47211 6.10493C3.69811 5.50366 4.05324 4.95928 4.51248 4.51016C4.96166 4.0525 5.50529 3.69837 6.10545 3.47249C6.67963 3.25019 7.33212 3.099 8.29059 3.054C8.52999 3.0432 8.72978 3.0342 8.93138 3.027L9.10598 3.0216C9.76223 3.00561 10.4187 2.99871 11.0751 3.0009L12.9255 3ZM12.0003 7.49989C10.8069 7.49989 9.6623 7.97399 8.8184 8.81788C7.97451 9.66178 7.50041 10.8063 7.50041 11.9998C7.50041 13.1932 7.97451 14.3378 8.8184 15.1817C9.6623 16.0256 10.8069 16.4997 12.0003 16.4997C13.1938 16.4997 14.3383 16.0256 15.1822 15.1817C16.0261 14.3378 16.5002 13.1932 16.5002 11.9998C16.5002 10.8063 16.0261 9.66178 15.1822 8.81788C14.3383 7.97399 13.1938 7.49989 12.0003 7.49989ZM12.0003 9.29985C12.3549 9.29979 12.706 9.36957 13.0336 9.5052C13.3612 9.64083 13.6588 9.83966 13.9096 10.0903C14.1603 10.341 14.3593 10.6386 14.495 10.9662C14.6307 11.2937 14.7006 11.6448 14.7007 11.9993C14.7008 12.3539 14.631 12.705 14.4953 13.0326C14.3597 13.3602 14.1609 13.6579 13.9102 13.9086C13.6595 14.1594 13.3619 14.3583 13.0344 14.494C12.7068 14.6298 12.3558 14.6997 12.0012 14.6997C11.2851 14.6997 10.5984 14.4153 10.0921 13.9089C9.58573 13.4026 9.30127 12.7159 9.30127 11.9998C9.30127 11.2837 9.58573 10.597 10.0921 10.0906C10.5984 9.58431 11.2851 9.29985 12.0012 9.29985M16.7261 6.14993C16.4277 6.14993 16.1416 6.26845 15.9306 6.47942C15.7196 6.6904 15.6011 6.97654 15.6011 7.2749C15.6011 7.57326 15.7196 7.8594 15.9306 8.07038C16.1416 8.28135 16.4277 8.39987 16.7261 8.39987C17.0245 8.39987 17.3106 8.28135 17.5216 8.07038C17.7325 7.8594 17.8511 7.57326 17.8511 7.2749C17.8511 6.97654 17.7325 6.6904 17.5216 6.47942C17.3106 6.26845 17.0245 6.14993 16.7261 6.14993Z" fill="#FAF3ED"/>
</svg>
