<svg width="178" height="31" viewBox="0 0 178 31" fill="none" xmlns="http://www.w3.org/2000/svg">
<path d="M0 17.1257C0 13.3768 3.78236 10.5016 8.42519 10.5016C13.068 10.5016 16.8294 13.3086 16.8294 17.2883V17.6556H2.51613C2.82394 20.0009 5.23514 21.7507 8.42519 21.7507C11.0416 21.7507 13.1683 20.6017 14.0264 19.0145H16.5822C15.4979 21.6825 12.3498 23.7078 8.38322 23.7078C3.64011 23.7078 0 20.8797 0 17.1283V17.1257ZM2.63739 15.9976H14.1897C13.5974 13.9513 11.3681 12.4324 8.38322 12.4324C5.39837 12.4324 3.27167 13.9513 2.63739 15.9976Z" fill="#C4F14F"/>
<path d="M17.9933 7.18826H20.5071V17.9757L29.8301 10.9371H33.265L26.619 15.9976L33.3256 23.2881H30.1565L24.7372 17.3775L20.5048 20.5755V23.2907H17.991V7.18826H17.9933Z" fill="#C4F14F"/>
<path d="M31.9167 17.1257C31.9167 13.4004 35.6175 10.5016 40.5052 10.5016C45.3929 10.5016 49.0936 13.4004 49.0936 17.1257C49.0936 20.8509 45.3929 23.7051 40.5052 23.7051C35.6175 23.7051 31.9167 20.8063 31.9167 17.1257ZM46.5775 17.102C46.5775 14.5495 43.9797 12.4796 40.5052 12.4796C37.0306 12.4796 34.4329 14.5495 34.4329 17.102C34.4329 19.6546 37.0306 21.7245 40.5052 21.7245C43.9797 21.7245 46.5775 19.6546 46.5775 17.102Z" fill="#C4F14F"/>
<path d="M49.9308 19.8854C49.9308 16.1366 54.6529 16.2284 58.293 16.0894C60.6249 15.9976 62.5464 15.8821 62.5464 14.6859C62.5464 13.4896 60.9304 12.477 58.1718 12.477C55.4131 12.477 53.4683 13.626 52.7734 15.3994H50.3599C51.1994 12.6632 54.1212 10.5907 58.272 10.5907C62.4228 10.5907 65.0812 12.3379 65.0812 15.6985V23.288H62.5861V20.759C60.9911 22.6925 58.5589 23.6107 55.7769 23.6107C52.1158 23.6107 49.9285 22.1835 49.9285 19.8854H49.9308ZM56.1477 21.8189C58.6218 21.8189 61.2802 20.8535 62.5884 19.1037V16.8502C61.5857 17.5873 59.8274 17.7474 58.0482 17.8156C55.2872 17.9074 52.4446 17.9074 52.4446 19.8618C52.4446 21.1971 53.979 21.8163 56.1453 21.8163L56.1477 21.8189Z" fill="#C4F14F"/>
<path d="M66.1238 18.7812H67.6978C68.5769 21.2419 70.622 22.37 74.0779 22.37C77.2073 22.37 79.1078 21.4046 79.1078 19.7466C79.1078 15.675 66.4316 20.2529 66.4316 14.7542C66.4316 12.4299 68.9267 10.89 72.8933 10.89C76.8599 10.89 79.5579 12.4535 80.5816 15.3996H79.0286C78.1704 13.2825 76.0834 12.1571 72.8747 12.1571C69.666 12.1571 67.9683 13.1697 67.9683 14.5942C67.9683 18.6421 80.6446 14.0197 80.6446 19.6075C80.6446 22.0919 78.0468 23.6108 74.1012 23.6108C69.7872 23.6108 67.0869 22.0001 66.1261 18.7812H66.1238Z" fill="#C4F14F"/>
<path d="M84.6902 19.9091V12.5033H80.1104V11.2152H84.6902V8.45538H86.2036V11.2152H92.3366V12.5033H86.2036V19.7019C86.2036 21.3127 86.9592 21.979 88.4516 21.979H92.3366V23.2907H88.0015C85.7722 23.2907 84.6902 22.118 84.6902 19.9091Z" fill="#C4F14F"/>
<path d="M93.2764 16.803V11.2125H94.8294V16.5249C94.8294 20.0901 96.9771 22.2518 100.309 22.2518C102.886 22.2518 105.032 20.7328 106.137 18.7102V11.2125H107.69V23.288H106.137V20.1583C104.787 22.2754 102.518 23.5871 99.941 23.5871C95.7482 23.5871 93.2764 20.7801 93.2764 16.8004V16.803Z" fill="#C4F14F"/>
<path d="M108.877 17.2411C108.877 13.6995 112.272 10.916 116.687 10.916C119.835 10.916 122.453 12.3196 123.68 14.4367V7.19083H125.233V23.2932H123.68V20.0271C122.453 22.1652 119.837 23.5923 116.687 23.5923C112.249 23.5923 108.877 20.8325 108.877 17.2437V17.2411ZM123.68 17.2647C123.68 14.4367 120.819 12.1805 116.994 12.1805C113.17 12.1805 110.411 14.4576 110.411 17.2411C110.411 20.0245 113.233 22.3252 116.994 22.3252C120.756 22.3252 123.68 20.0481 123.68 17.2647Z" fill="#C4F14F"/>
<path d="M126.746 7.57921H128.32V9.62546H126.746V7.57921ZM126.767 11.2126H128.301V23.2881H126.767V11.2126Z" fill="#C4F14F"/>
<path d="M129.507 17.2648C129.507 13.6314 133.044 10.8244 137.685 10.8244C142.325 10.8244 145.863 13.6314 145.863 17.2648C145.863 20.8982 142.325 23.6607 137.685 23.6607C133.044 23.6607 129.507 20.8536 129.507 17.2648ZM144.31 17.2412C144.31 14.4342 141.467 12.1335 137.685 12.1335C133.903 12.1335 131.039 14.4342 131.039 17.2412C131.039 20.0483 133.903 22.37 137.685 22.37C141.467 22.37 144.31 20.0456 144.31 17.2412Z" fill="#C4F14F"/>
<path d="M167.874 22.6215C166.857 20.4126 165.22 17.9833 163.201 15.7114C161.181 13.4396 159.022 11.5953 157.059 10.4541C158.192 12.6368 159.855 15.0005 161.844 17.2383C163.833 19.476 165.934 21.3491 167.874 22.6215Z" fill="#C4F14F"/>
<path d="M165.069 26.6983C167.126 27.7765 168.282 27.6768 168.648 27.265C168.954 26.9213 169.064 25.9612 168.543 24.3215C166.317 23.0885 163.667 20.898 161.13 18.0437C158.593 15.1895 156.646 12.2119 155.55 9.70395C154.09 9.11893 153.237 9.24223 152.934 9.58589C152.568 9.99777 152.479 11.299 153.437 13.6128C153.489 13.7387 153.545 13.8673 153.603 13.9958C155.611 14.8117 157.999 16.593 160.212 19.0826C162.425 21.5722 164.006 24.2586 164.733 26.5173C164.847 26.5803 164.959 26.6432 165.074 26.7036L165.069 26.6983Z" fill="#C4F14F"/>
<path d="M163.278 25.5966C162.452 23.7261 161.132 21.7297 159.493 19.8854C157.854 18.0412 156.079 16.5564 154.417 15.6277C155.419 17.4378 156.779 19.3372 158.381 21.1368C159.983 22.9365 161.669 24.4685 163.278 25.5966Z" fill="#C4F14F"/>
<path d="M170.742 7.22747C174.795 11.7869 177.465 16.5956 177.773 19.505V3.09036C177.773 1.38515 176.544 0 175.026 0H161.932C164.435 1.18053 167.65 3.74884 170.74 7.22484L170.742 7.22747Z" fill="#C4F14F"/>
<path d="M157.665 21.9395C155.568 19.581 153.924 17.1124 152.889 14.9245C151.702 14.5126 150.755 14.531 150.333 15.0032C150.326 15.0111 150.322 15.019 150.315 15.0268V18.0621C150.378 18.272 150.448 18.4897 150.529 18.7127C151.299 20.8272 152.77 23.1672 154.671 25.3053C156.571 27.4434 158.654 29.0987 160.531 29.9645C162.061 30.6702 163.324 30.7541 163.828 30.1848C164.248 29.7126 164.267 28.6475 163.898 27.3096C161.953 26.1474 159.759 24.2953 157.663 21.9369L157.665 21.9395Z" fill="#C4F14F"/>
<path d="M177.313 21.6482C176.647 22.3985 175.38 22.3644 173.767 21.6928C174.095 23.1016 174.012 24.2139 173.44 24.8592C172.741 25.6463 171.418 25.6122 169.756 24.9143C170.054 26.3021 169.947 27.4118 169.364 28.0676C168.562 28.9701 167.002 28.8599 165.087 27.9496C165.29 29.1905 165.155 30.2188 164.628 30.8904H175.031C176.546 30.8904 177.778 29.5079 177.778 27.8001V20.5201C177.717 20.9819 177.568 21.3622 177.316 21.6456L177.313 21.6482Z" fill="#C4F14F"/>
<path d="M172.724 24.0566C173.039 23.7024 173.062 22.6793 172.533 21.0921C170.159 19.783 167.275 17.3879 164.493 14.2581C161.711 11.1284 159.582 7.8833 158.418 5.21268C157.007 4.61717 156.098 4.64341 155.783 4.99757C155.417 5.40944 155.445 6.73687 156.287 8.80411C158.532 9.81674 161.298 11.9679 163.912 14.9088C166.526 17.8496 168.438 20.9636 169.338 23.4873C171.176 24.4343 172.356 24.4658 172.722 24.0539L172.724 24.0566Z" fill="#C4F14F"/>
<path d="M153.957 26.1107C152.411 24.3714 151.17 22.5324 150.317 20.8114V27.8028C150.317 29.508 151.546 30.8931 153.064 30.8931H159.892C158.038 29.9802 155.927 28.3275 153.959 26.1107H153.957Z" fill="#C4F14F"/>
<path d="M152.322 13.5918C151.513 11.438 151.415 9.68292 152.218 8.78047C152.8 8.12462 153.789 8.00393 155.02 8.33973C154.4 6.46925 154.37 4.98178 155.069 4.19476C155.643 3.54941 156.632 3.45759 157.884 3.82749C157.327 2.13802 157.264 0.786975 157.795 0.00257874H153.062C151.546 0.00257874 150.315 1.38511 150.315 3.09294V13.702C150.86 13.4632 151.544 13.4344 152.32 13.597L152.322 13.5918Z" fill="#C4F14F"/>
<path d="M176.598 20.8455C176.971 20.4258 176.875 18.8832 175.784 16.4881C174.59 13.8673 172.545 10.8635 170.029 8.03025C167.513 5.1996 164.843 2.89887 162.511 1.55569C160.382 0.327943 159.01 0.220386 158.637 0.64013C158.302 1.0179 158.348 2.31386 159.162 4.32076C161.541 5.4357 164.528 7.80464 167.38 11.0104C170.229 14.2162 172.335 17.5794 173.326 20.2553C175.112 21.1708 176.262 21.2233 176.598 20.8455Z" fill="#C4F14F"/>
<path d="M171.84 19.3843C170.719 16.9943 168.895 14.3237 166.664 11.8157C164.432 9.30515 162.06 7.25628 159.936 5.99181C161.163 8.36336 163.002 10.9736 165.208 13.4554C167.414 15.9371 169.735 18.007 171.843 19.3869L171.84 19.3843Z" fill="#C4F14F"/>
</svg>
