<svg width="118" height="118" viewBox="0 0 118 118" fill="none" xmlns="http://www.w3.org/2000/svg">
<g filter="url(#filter0_d_160_306)">
<path d="M43.0376 10.44C41.0926 12.385 41.1846 16.079 42.9256 20.7775C39.2756 19.817 36.39 20.0611 34.7211 21.73C32.68 23.7711 32.7681 27.6252 34.5811 32.4718C30.9871 31.6034 28.1096 31.9115 26.4087 33.6165C24.0714 35.9537 24.3596 40.5042 26.7168 46.0832C23.339 45.4588 20.5695 45.9271 18.8366 47.656C13.8059 52.6867 19.4649 66.5062 31.4794 78.5207C43.4939 90.5351 57.3133 96.1942 62.344 91.1635C64.073 89.4346 64.5412 86.6651 63.9169 83.2832C69.4999 85.6405 74.0463 85.9287 76.3836 83.5914C78.0845 81.8905 78.3927 79.0129 77.5282 75.419C82.3748 77.228 86.2289 77.316 88.27 75.2789C89.9389 73.61 90.183 70.7245 89.2225 67.0745C93.9251 68.8154 97.6151 68.9075 99.5601 66.9624C104.591 61.9317 96.0182 45.1987 80.4098 29.5903C64.7974 13.9819 48.0683 5.40925 43.0376 10.44ZM83.6075 61.0953C77.4642 57.5213 70.6965 52.1544 64.2691 45.727C57.8416 39.2995 52.4747 32.5359 48.9008 26.3886C55.0961 29.6623 62.0119 34.9732 68.5154 41.4767C75.0189 47.9802 80.3337 54.8959 83.6035 61.0913L83.6075 61.0953ZM72.0453 69.4838C66.3942 66.182 60.2669 61.3354 54.4678 55.5323C48.6647 49.7291 43.818 43.6058 40.5163 37.9548C46.2433 40.9164 52.5347 45.695 58.4219 51.5781C64.3091 57.4653 69.0877 63.7567 72.0453 69.4838ZM44.3663 65.6337C44.3657 65.633 44.365 65.6324 44.3643 65.6317C39.6987 60.9658 35.7333 56.0479 32.8121 51.354C37.6587 53.7593 42.8335 57.6054 47.6121 62.384C52.3947 67.1666 56.2367 72.3373 58.642 77.184C53.9522 74.2628 49.0303 70.2974 44.3643 65.6317C44.3637 65.631 44.363 65.6304 44.3623 65.6297L44.3643 65.6317L44.3663 65.6337ZM60.2549 89.0864C58.7821 90.5592 55.1001 90.339 50.6417 88.5141C45.1668 86.2688 39.0995 81.9825 33.5565 76.4436C28.0175 70.9046 23.7272 64.8373 21.486 59.3583C19.661 54.8999 19.4409 51.2179 20.9137 49.7452C22.1384 48.5205 24.8998 48.4685 28.3617 49.541C31.3753 55.2121 36.1699 61.6076 42.2812 67.7188C48.3925 73.8301 54.788 78.6247 60.459 81.6383C61.5276 85.1002 61.4796 87.8617 60.2549 89.0864ZM74.2985 81.5143C73.2299 82.5829 69.8561 82.839 63.8649 80.0495C63.5367 79.8974 63.2085 79.7333 62.8763 79.5692C60.7592 73.7181 56.1447 66.7543 49.6972 60.3068C43.2497 53.8594 36.282 49.2449 30.4348 47.1277C30.2707 46.7956 30.1067 46.4634 29.9546 46.1392C27.1651 40.148 27.4212 36.7742 28.4898 35.7056C29.3783 34.8171 31.8636 34.4969 36.1179 36.0138C39.3156 42.5093 44.9907 50.2254 52.3867 57.6214C59.7827 65.0174 67.4988 70.6925 73.9943 73.8902C75.5111 78.1445 75.191 80.6298 74.3025 81.5183L74.2985 81.5143ZM86.1849 73.1978C85.1163 74.2664 81.6785 74.1823 76.3196 71.729C73.6982 65.1855 68.1232 57.1211 60.503 49.497C52.8829 41.8769 44.8146 36.3019 38.2711 33.6805C35.8177 28.3216 35.7337 24.8837 36.8023 23.8152C37.7188 22.8987 40.3722 22.8346 44.4824 24.3715C47.8722 31.2872 54.0836 39.6997 62.192 47.8081C70.3003 55.9165 78.7129 62.1278 85.6286 65.5177C87.1694 69.6279 87.1014 72.2813 86.1849 73.1978ZM97.479 64.8813C96.4985 65.8619 93.1446 65.7218 87.9378 63.3525C85.0483 56.4208 78.913 47.7081 70.6005 39.3996C62.292 31.0911 53.5793 24.9558 46.6476 22.0622C44.2783 16.8594 44.1382 13.5016 45.1187 12.5211C46.2073 11.4325 50.2015 11.7126 56.4128 14.8944C63.2045 18.3762 70.9887 24.3355 78.3246 31.6714C85.6606 39.0074 91.6198 46.7916 95.1017 53.5832C98.2834 59.7906 98.5636 63.7887 97.475 64.8773L97.479 64.8813Z" fill="#C4F14F"/>
<path d="M97.479 64.8813C96.4985 65.8619 93.1446 65.7218 87.9378 63.3525C85.0483 56.4208 78.913 47.7081 70.6005 39.3996C62.292 31.0911 53.5793 24.9558 46.6476 22.0622C44.2783 16.8594 44.1382 13.5016 45.1187 12.5211C46.2073 11.4325 50.2015 11.7126 56.4128 14.8944C63.2045 18.3762 70.9887 24.3355 78.3246 31.6714C85.6606 39.0074 91.6198 46.7916 95.1017 53.5832C98.2834 59.7906 98.5636 63.7887 97.475 64.8773L97.479 64.8813Z" fill="#C4F14F"/>
<path d="M86.1849 73.1978C85.1163 74.2664 81.6785 74.1823 76.3196 71.729C73.6982 65.1855 68.1232 57.1211 60.503 49.497C52.8829 41.8769 44.8146 36.3019 38.2711 33.6805C35.8177 28.3216 35.7337 24.8837 36.8023 23.8152C37.7188 22.8987 40.3722 22.8346 44.4824 24.3715C47.8722 31.2872 54.0836 39.6997 62.192 47.8081C70.3003 55.9165 78.7129 62.1278 85.6286 65.5177C87.1694 69.6279 87.1014 72.2813 86.1849 73.1978Z" fill="#C4F14F"/>
<path d="M83.6075 61.0953C77.4642 57.5213 70.6965 52.1544 64.2691 45.727C57.8416 39.2995 52.4747 32.5359 48.9008 26.3886C55.0961 29.6623 62.0119 34.9732 68.5154 41.4767C75.0189 47.9802 80.3337 54.8959 83.6035 61.0913L83.6075 61.0953Z" fill="#C4F14F"/>
<path d="M72.0453 69.4838C66.3942 66.182 60.2669 61.3354 54.4678 55.5323C48.6647 49.7291 43.818 43.6058 40.5163 37.9548C46.2433 40.9164 52.5347 45.695 58.4219 51.5781C64.3091 57.4653 69.0877 63.7567 72.0453 69.4838Z" fill="#C4F14F"/>
<path d="M74.2985 81.5143C73.2299 82.5829 69.8561 82.839 63.8649 80.0495C63.5367 79.8974 63.2085 79.7333 62.8763 79.5692C60.7592 73.7181 56.1447 66.7543 49.6972 60.3068C43.2497 53.8594 36.282 49.2449 30.4348 47.1277C30.2707 46.7956 30.1067 46.4634 29.9546 46.1392C27.1651 40.148 27.4212 36.7742 28.4898 35.7056C29.3783 34.8171 31.8636 34.4969 36.1179 36.0138C39.3156 42.5093 44.9907 50.2254 52.3867 57.6214C59.7827 65.0174 67.4988 70.6925 73.9943 73.8902C75.5111 78.1445 75.191 80.6298 74.3025 81.5183L74.2985 81.5143Z" fill="#C4F14F"/>
<path d="M32.8121 51.354C35.7333 56.0479 39.6987 60.9658 44.3643 65.6317C49.0303 70.2974 53.9522 74.2628 58.642 77.184C56.2367 72.3373 52.3947 67.1666 47.6121 62.384C42.8335 57.6054 37.6587 53.7593 32.8121 51.354Z" fill="#C4F14F"/>
<path d="M60.2549 89.0864C58.7821 90.5592 55.1001 90.339 50.6417 88.5141C45.1668 86.2688 39.0995 81.9825 33.5565 76.4436C28.0175 70.9046 23.7272 64.8373 21.486 59.3583C19.661 54.8999 19.4409 51.2179 20.9137 49.7452C22.1384 48.5205 24.8998 48.4685 28.3617 49.541C31.3753 55.2121 36.1699 61.6076 42.2812 67.7188C48.3925 73.8301 54.788 78.6247 60.459 81.6383C61.5276 85.1002 61.4796 87.8617 60.2549 89.0864Z" fill="#C4F14F"/>
<path fill-rule="evenodd" clip-rule="evenodd" d="M100.641 64.4818C100.563 64.8311 100.46 65.1598 100.33 65.4668C100.099 66.0121 99.7845 66.489 99.3827 66.8908C98.3017 67.9718 96.6793 68.4208 94.6425 68.305C93.0305 68.2134 91.159 67.7681 89.0907 67.0024C89.6604 69.1676 89.8044 71.0626 89.4763 72.5922C89.2537 73.6297 88.8139 74.4991 88.1423 75.1707C86.9657 76.345 85.184 76.8099 82.9557 76.6437C81.5041 76.5355 79.8631 76.1593 78.0763 75.5369C77.8688 75.4646 77.6593 75.389 77.4479 75.3101C77.4743 75.4202 77.4997 75.5296 77.524 75.6384C77.9711 77.642 78.0408 79.4118 77.693 80.8642C77.4463 81.8946 76.9895 82.7654 76.3083 83.4465C75.8845 83.8703 75.3877 84.2075 74.825 84.4612C74.5521 84.5843 74.2637 84.6877 73.9606 84.7719C72.661 85.1331 71.0911 85.1408 69.3145 84.8251C67.9029 84.5743 66.3609 84.1193 64.7201 83.4753C64.4482 83.3686 64.1736 83.2567 63.8965 83.1397C63.9141 83.2352 63.9309 83.3302 63.9468 83.4247C64.2819 85.4195 64.2254 87.1914 63.7415 88.649C63.44 89.5571 62.9726 90.3432 62.3306 90.9852C57.322 95.9938 43.5635 90.3597 31.6019 78.3981C19.6404 66.4366 14.0063 52.678 19.0148 47.6695C19.6576 47.0281 20.4437 46.561 21.351 46.2595C22.8102 45.7746 24.583 45.7179 26.5776 46.0536C26.6714 46.0694 26.7656 46.086 26.8604 46.1036C26.7429 45.8256 26.6306 45.5501 26.5235 45.2774C25.8799 43.638 25.4252 42.0966 25.1746 40.6854C24.634 37.6409 25.0431 35.2022 26.5535 33.6918C27.2343 33.0094 28.1043 32.5518 29.1338 32.3047C30.5866 31.9559 32.357 32.0262 34.3615 32.4757C34.4703 32.5001 34.5798 32.5256 34.6899 32.5522C34.61 32.3386 34.5335 32.1269 34.4603 31.9172C33.8376 30.1321 33.4614 28.4925 33.3533 27.0422C33.1871 24.8149 33.6532 23.034 34.8294 21.8577C35.5009 21.1863 36.3701 20.7465 37.4075 20.5239C38.8541 20.2134 40.6277 20.3253 42.6475 20.8204C42.7634 20.8488 42.8801 20.8785 42.9977 20.9094C42.9223 20.7059 42.85 20.5043 42.7808 20.3046C42.1474 18.4761 41.7773 16.8115 41.6949 15.3576C41.5795 13.3211 42.0285 11.6981 43.1092 10.6174C48.1178 5.60884 64.7731 14.1437 80.3167 29.6833C93.9075 43.2741 102.14 57.7212 100.641 64.4818ZM36.505 15.4102C36.4954 15.1818 36.4906 14.9543 36.491 14.728C36.4947 12.1168 37.1947 9.19735 39.4419 6.95009C42.3531 4.03892 46.3255 3.72405 49.5438 4.15847C52.8611 4.60623 56.4886 5.96445 60.1275 7.82915C67.4599 11.5865 75.9375 17.9716 83.9836 26.0156L83.984 26.016C92.0284 34.0604 98.4136 42.5382 102.171 49.8712C104.036 53.5105 105.394 57.1383 105.842 60.4557C106.276 63.6741 105.961 67.6469 103.05 70.5581C100.803 72.8048 97.8855 73.5054 95.2736 73.5091C95.0467 73.5094 94.8188 73.5046 94.5898 73.495C94.2162 75.4204 93.3728 77.2748 91.8096 78.838L91.806 78.8416C89.5207 81.1224 86.55 81.853 83.861 81.8626C83.5085 81.8639 83.1532 81.8531 82.7958 81.8311C82.3873 83.7365 81.523 85.5664 79.9756 87.1138C77.4497 89.6397 74.1136 90.3335 71.1325 90.229C70.3538 90.2017 69.5617 90.1202 68.7605 89.9912C68.2529 91.6742 67.3771 93.2733 65.9979 94.6525C63.475 97.1755 60.1622 98.0151 57.0727 97.9999C54.0099 97.9847 50.7663 97.1485 47.6079 95.8548C41.269 93.2585 34.2808 88.4116 27.9346 82.0654C21.5885 75.7193 16.7415 68.7311 14.1452 62.3922C12.8516 59.2337 12.0153 55.9901 12.0002 52.9273C11.9849 49.8379 12.8246 46.5251 15.3475 44.0022L15.3518 43.9979C16.7306 42.6223 18.3279 41.7478 20.0087 41.2404C19.8798 40.4395 19.7984 39.6475 19.7711 38.869C19.6667 35.8895 20.3594 32.5533 22.8834 30.0273C24.4306 28.4771 26.2604 27.6112 28.1659 27.202C28.1439 26.8453 28.1332 26.4909 28.1344 26.139C28.144 23.4473 28.8773 20.4753 31.1621 18.1904C32.7252 16.6273 34.5797 15.7839 36.505 15.4102Z" fill="#FAF3ED"/>
<path d="M43.0376 10.44C41.0926 12.385 41.1846 16.079 42.9256 20.7775C39.2756 19.817 36.39 20.0611 34.7211 21.73C32.68 23.7711 32.7681 27.6252 34.5811 32.4718C30.9871 31.6034 28.1096 31.9115 26.4087 33.6165C24.0714 35.9537 24.3596 40.5042 26.7168 46.0832C23.339 45.4588 20.5695 45.9271 18.8366 47.656C13.8059 52.6867 19.4649 66.5062 31.4794 78.5207C43.4939 90.5351 57.3133 96.1942 62.344 91.1635C64.073 89.4346 64.5412 86.6651 63.9169 83.2832C69.4999 85.6405 74.0463 85.9287 76.3836 83.5914C78.0845 81.8905 78.3927 79.0129 77.5282 75.419C82.3748 77.228 86.2289 77.316 88.27 75.2789C89.9389 73.61 90.183 70.7245 89.2225 67.0745C93.9251 68.8154 97.6151 68.9075 99.5601 66.9624C104.591 61.9317 96.0182 45.1987 80.4098 29.5903C64.7974 13.9819 48.0683 5.40925 43.0376 10.44ZM83.6075 61.0953C77.4642 57.5213 70.6965 52.1544 64.2691 45.727C57.8416 39.2995 52.4747 32.5359 48.9008 26.3886C55.0961 29.6623 62.0119 34.9732 68.5154 41.4767C75.0189 47.9802 80.3337 54.8959 83.6035 61.0913L83.6075 61.0953ZM72.0453 69.4838C66.3942 66.182 60.2669 61.3354 54.4678 55.5323C48.6647 49.7291 43.818 43.6058 40.5163 37.9548C46.2433 40.9164 52.5347 45.695 58.4219 51.5781C64.3091 57.4653 69.0877 63.7567 72.0453 69.4838ZM44.3663 65.6337C44.3657 65.633 44.365 65.6324 44.3643 65.6317C39.6987 60.9658 35.7333 56.0479 32.8121 51.354C37.6587 53.7593 42.8335 57.6054 47.6121 62.384C52.3947 67.1666 56.2367 72.3373 58.642 77.184C53.9522 74.2628 49.0303 70.2974 44.3643 65.6317C44.3637 65.631 44.363 65.6304 44.3623 65.6297L44.3643 65.6317L44.3663 65.6337ZM60.2549 89.0864C58.7821 90.5592 55.1001 90.339 50.6417 88.5141C45.1668 86.2688 39.0995 81.9825 33.5565 76.4436C28.0175 70.9046 23.7272 64.8373 21.486 59.3583C19.661 54.8999 19.4409 51.2179 20.9137 49.7452C22.1384 48.5205 24.8998 48.4685 28.3617 49.541C31.3753 55.2121 36.1699 61.6076 42.2812 67.7188C48.3925 73.8301 54.788 78.6247 60.459 81.6383C61.5276 85.1002 61.4796 87.8617 60.2549 89.0864ZM74.2985 81.5143C73.2299 82.5829 69.8561 82.839 63.8649 80.0495C63.5367 79.8974 63.2085 79.7333 62.8763 79.5692C60.7592 73.7181 56.1447 66.7543 49.6972 60.3068C43.2497 53.8594 36.282 49.2449 30.4348 47.1277C30.2707 46.7956 30.1067 46.4634 29.9546 46.1392C27.1651 40.148 27.4212 36.7742 28.4898 35.7056C29.3783 34.8171 31.8636 34.4969 36.1179 36.0138C39.3156 42.5093 44.9907 50.2254 52.3867 57.6214C59.7827 65.0174 67.4988 70.6925 73.9943 73.8902C75.5111 78.1445 75.191 80.6298 74.3025 81.5183L74.2985 81.5143ZM86.1849 73.1978C85.1163 74.2664 81.6785 74.1823 76.3196 71.729C73.6982 65.1855 68.1232 57.1211 60.503 49.497C52.8829 41.8769 44.8146 36.3019 38.2711 33.6805C35.8177 28.3216 35.7337 24.8837 36.8023 23.8152C37.7188 22.8987 40.3722 22.8346 44.4824 24.3715C47.8722 31.2872 54.0836 39.6997 62.192 47.8081C70.3003 55.9165 78.7129 62.1278 85.6286 65.5177C87.1694 69.6279 87.1014 72.2813 86.1849 73.1978ZM97.479 64.8813C96.4985 65.8619 93.1446 65.7218 87.9378 63.3525C85.0483 56.4208 78.913 47.7081 70.6005 39.3996C62.292 31.0911 53.5793 24.9558 46.6476 22.0622C44.2783 16.8594 44.1382 13.5016 45.1187 12.5211C46.2073 11.4325 50.2015 11.7126 56.4128 14.8944C63.2045 18.3762 70.9887 24.3355 78.3246 31.6714C85.6606 39.0074 91.6198 46.7916 95.1017 53.5832C98.2834 59.7906 98.5636 63.7887 97.475 64.8773L97.479 64.8813Z" fill="#005E47"/>
</g>
<defs>
<filter id="filter0_d_160_306" x="0" y="6.10352e-05" width="118" height="118" filterUnits="userSpaceOnUse" color-interpolation-filters="sRGB">
<feFlood flood-opacity="0" result="BackgroundImageFix"/>
<feColorMatrix in="SourceAlpha" type="matrix" values="0 0 0 0 0 0 0 0 0 0 0 0 0 0 0 0 0 0 127 0" result="hardAlpha"/>
<feOffset dy="8"/>
<feGaussianBlur stdDeviation="6"/>
<feComposite in2="hardAlpha" operator="out"/>
<feColorMatrix type="matrix" values="0 0 0 0 0 0 0 0 0 0 0 0 0 0 0 0 0 0 0.25 0"/>
<feBlend mode="normal" in2="BackgroundImageFix" result="effect1_dropShadow_160_306"/>
<feBlend mode="normal" in="SourceGraphic" in2="effect1_dropShadow_160_306" result="shape"/>
</filter>
</defs>
</svg>
