<svg width="94" height="89" viewBox="0 0 94 89" fill="none" xmlns="http://www.w3.org/2000/svg">
<path d="M6.42263 58.8204C8.34465 60.6267 11.9933 60.5441 16.6386 58.9263C15.6916 62.3144 15.9325 64.9931 17.5815 66.5438C19.5966 68.4374 23.4045 68.3558 28.1925 66.6759C27.3353 70.0124 27.6424 72.6834 29.3246 74.2642C31.6343 76.4348 36.1276 76.1705 41.6435 73.9815C41.0283 77.1178 41.4884 79.6887 43.1985 81.2948C48.1695 85.9663 61.8222 80.7099 73.6924 69.5538C85.5626 58.3988 91.156 45.5677 86.186 40.8971C84.477 39.2911 81.7403 38.8587 78.4039 39.4358C80.7332 34.2523 81.0145 30.0287 78.7047 27.8591C77.0226 26.2783 74.1804 25.9897 70.63 26.7952C72.4186 22.2956 72.5044 18.7172 70.4893 16.8235C68.8403 15.2738 65.9898 15.0474 62.3836 15.9374C64.105 11.5729 64.1919 8.14314 62.2709 6.33692C57.2999 1.66541 40.7688 9.62776 25.3461 24.1203C9.92445 38.6129 1.45163 54.1489 6.42263 58.8204Z" fill="#C4F14F"/>
<path fill-rule="evenodd" clip-rule="evenodd" d="M86.3385 33.6511C86.3818 30.4098 85.4903 26.5369 82.332 23.5648C81.1319 22.4353 79.8228 21.631 78.4718 21.0752C78.1653 18.4248 77.1124 15.5482 74.6585 13.2379C73.4216 12.0734 72.0684 11.2629 70.6743 10.7185C70.3175 8.24124 69.2752 5.58478 66.9824 3.42498L66.9808 3.42351C63.2657 -0.0741673 58.4687 -0.259171 55.1651 0.16086C51.6587 0.606684 47.9714 1.93248 44.4346 3.63901C37.286 7.08822 29.1611 12.8721 21.5183 20.0669C13.8844 27.254 7.70339 34.9348 3.99264 41.7515C2.16298 45.1126 0.685116 48.7135 0.182124 52.2201C-0.307689 55.6349 -0.0320423 60.5467 3.84013 64.1922C6.19018 66.4047 8.99794 67.284 11.4914 67.5359C12.1003 68.9035 12.9939 70.2233 14.2629 71.4188L14.2647 71.4205C16.7838 73.7921 19.8284 74.6649 22.4879 74.8643C23.1086 76.1973 23.9977 77.4811 25.235 78.646C28.4242 81.6485 32.4379 82.3182 35.6104 82.2147C35.6765 82.2126 35.7427 82.2101 35.8088 82.2073L38.1959 85.2259L38.1977 85.2275C41.3334 88.1786 45.2691 89.0124 48.5683 88.9968C51.8703 88.9813 55.2417 88.1384 58.3854 86.9258C64.7028 84.4891 71.522 80.0081 77.6507 74.2376C83.7681 68.4783 88.5884 62.0072 91.2377 55.9193C92.554 52.8945 93.5148 49.5515 93.5328 46.2026C93.5513 42.7627 92.5381 38.796 89.3222 35.7683C88.3841 34.8851 87.3792 34.1903 86.3385 33.6511ZM76.8494 29.3908C77.0084 29.5404 77.1543 29.7004 77.2872 29.8705C77.7544 30.4684 78.0618 31.1903 78.218 32.0182C78.6205 34.1511 78.0204 36.9883 76.5684 40.2254C79.6852 39.6853 82.2419 40.09 83.8384 41.5931C84.0485 41.7908 84.2383 42.0042 84.4084 42.2324C87.9965 47.0476 82.7543 58.4452 72.1669 68.4128C61.8318 78.1439 50.0501 83.0788 44.7363 80.1652C44.3487 79.9527 43.9955 79.6984 43.6797 79.4011C42.0822 77.898 41.6524 75.4919 42.2271 72.5566C39.0334 73.8264 36.2066 74.4042 34.005 74.1763C33.1114 74.0838 32.3208 73.8586 31.6505 73.4931C31.3077 73.3062 30.9964 73.0826 30.7188 72.8212C29.1473 71.3418 28.8605 68.842 29.6612 65.7194C26.259 66.9153 23.3865 67.2457 21.3778 66.5555C21.15 66.4772 20.9332 66.3857 20.7281 66.2809C20.3641 66.095 20.0367 65.867 19.7485 65.5957C18.208 64.1444 17.9829 61.6374 18.8677 58.4666C15.3776 59.6842 12.4897 59.9726 10.5588 59.1595C10.0888 58.9616 9.67545 58.6984 9.32395 58.3675C4.68007 53.9954 12.5953 39.4552 27.0022 25.8917C41.41 12.3282 56.8532 4.87622 61.497 9.24827C61.7313 9.4689 61.9335 9.71542 62.1046 9.98639C63.2444 11.7915 63.0006 14.6818 61.6023 18.2333C64.9712 17.4004 67.6341 17.6123 69.1747 19.0626C69.3407 19.2189 69.4914 19.3875 69.6271 19.5678C69.7662 19.7526 69.8896 19.9497 69.9974 20.1587C70.9778 22.0584 70.6786 24.9359 69.306 28.3951C72.6228 27.6413 75.278 27.9113 76.8494 29.3908Z" fill="#005E47"/>
</svg>
