<svg width="25" height="24" viewBox="0 0 25 24" fill="none" xmlns="http://www.w3.org/2000/svg">
<path d="M17.3834 5.82C16.6998 5.03962 16.3231 4.03743 16.3234 3H13.2334V15.4C13.2095 16.071 12.9262 16.7066 12.4431 17.1729C11.96 17.6393 11.3148 17.8999 10.6434 17.9C9.22336 17.9 8.04336 16.74 8.04336 15.3C8.04336 13.58 9.70336 12.29 11.4134 12.82V9.66C7.96336 9.2 4.94336 11.88 4.94336 15.3C4.94336 18.63 7.70336 21 10.6334 21C13.7734 21 16.3234 18.45 16.3234 15.3V9.01C17.5764 9.90985 19.0807 10.3926 20.6234 10.39V7.3C20.6234 7.3 18.7434 7.39 17.3834 5.82Z" fill="#FAF3ED"/>
</svg>
